<svg width="32" height="32" viewBox="0 0 32 32" xmlns="http://www.w3.org/2000/svg" >
    <path d="M16.321 19.95c-0.038-0.075-0.068-0.133-0.098-0.191-0.369-0.708-1.258-1.168-2.048-1.060-0.678 0.093-1.243 0.657-1.442 1.453-0.214 0.858-0.059 1.686 0.249 2.49 0.504 1.312 1.301 2.434 2.283 3.427 0.679 0.687 1.221 0.675 1.89-0.024 0.928-0.97 1.682-2.059 2.204-3.3 0.308-0.731 0.535-1.485 0.569-2.284 0.025-0.578-0.050-1.134-0.378-1.63-0.418-0.63-1.104-0.815-1.78-0.483-0.42 0.207-0.752 0.515-1.014 0.898-0.15 0.219-0.282 0.452-0.436 0.703zM29.395 23.638c-0.015 1.082-0.259 2.112-0.757 3.070-0.845 1.625-2.068 2.884-3.705 3.728-1.614 0.832-3.267 0.927-4.957 0.265-0.686-0.269-1.37-0.547-2.039-0.855-1.215-0.56-2.425-0.555-3.668-0.090-0.873 0.327-1.759 0.625-2.654 0.884-0.927 0.268-1.881 0.366-2.848 0.256-0.836-0.095-1.542-0.466-2.154-1.026-0.78-0.715-1.405-1.549-1.799-2.533-0.505-1.261-0.384-2.478 0.352-3.627 0.576-0.9 1.353-1.617 2.106-2.36 0.547-0.54 1.083-1.094 1.587-1.674 0.582-0.669 0.929-1.477 1.217-2.306 0.267-0.77 0.51-1.548 0.774-2.319 0.191-0.557 0.54-1.020 0.886-1.49 0.832-1.13 2.018-1.625 3.329-1.916 1.553-0.345 2.907 0.1 4.061 1.121 0.711 0.628 1.326 1.365 1.987 2.049 1.127 1.166 2.322 2.255 3.661 3.174 0.666 0.458 1.366 0.868 2.027 1.334 0.946 0.666 1.744 1.473 2.23 2.546 0.255 0.562 0.356 1.157 0.364 1.77z"></path>
    <path d="M14.146 7.599c0.003 0.866-0.151 1.801-0.561 2.679-0.439 0.94-1.074 1.683-2.119 1.972-0.86 0.238-1.653 0.046-2.393-0.416-0.973-0.608-1.632-1.49-2.121-2.504-0.711-1.473-0.985-3.032-0.839-4.661 0.086-0.962 0.358-1.862 0.896-2.68 0.927-1.411 2.593-1.809 4.042-0.951 0.94 0.557 1.599 1.37 2.099 2.32 0.682 1.294 1.007 2.679 0.996 4.24z"></path>
    <path d="M24.264 5.019c0.002 1.764-0.324 3.245-1.127 4.599-0.449 0.757-1.023 1.402-1.816 1.817-1.16 0.606-2.437 0.384-3.347-0.564-0.721-0.75-1.112-1.664-1.321-2.663-0.362-1.728-0.175-3.416 0.437-5.058 0.296-0.795 0.729-1.522 1.351-2.108 0.573-0.541 1.226-0.964 2.039-1.032 1.035-0.086 1.848 0.353 2.497 1.128 0.669 0.799 1.004 1.747 1.17 2.758 0.072 0.436 0.093 0.88 0.117 1.123z"></path>
    <path d="M0 13.524c0.014-0.788 0.165-1.529 0.633-2.171 0.612-0.84 1.469-1.15 2.482-1.086 1.024 0.064 1.897 0.507 2.68 1.131 1.395 1.112 2.317 2.532 2.684 4.289 0.162 0.777 0.175 1.562-0.097 2.319-0.467 1.302-1.534 1.974-2.923 1.866-0.865-0.067-1.625-0.413-2.324-0.905-1.505-1.061-2.474-2.503-2.965-4.266-0.105-0.378-0.116-0.783-0.17-1.176z"></path>
    <path d="M31.666 11.066c-0.233 2.447-1.229 4.339-3.16 5.702-0.536 0.378-1.139 0.597-1.798 0.664-1.114 0.113-2.127-0.514-2.545-1.587-0.368-0.943-0.347-1.908-0.115-2.869 0.445-1.849 1.439-3.342 3.001-4.437 0.691-0.485 1.476-0.682 2.319-0.612 0.98 0.082 1.809 0.817 2.096 1.899 0.116 0.437 0.149 0.896 0.203 1.24z"></path>
</svg>