<svg aria-hidden="true" style="position: absolute; width: 0; height: 0; overflow: hidden;" version="1.1" xmlns="http://www.w3.org/2000/svg" xmlns:xlink="http://www.w3.org/1999/xlink">
<defs>
<symbol id="icon-favicon" viewBox="0 0 32 32">
<path d="M16.321 19.95c-0.038-0.075-0.068-0.133-0.098-0.191-0.369-0.708-1.258-1.168-2.048-1.060-0.678 0.093-1.243 0.657-1.442 1.453-0.214 0.858-0.059 1.686 0.249 2.49 0.504 1.312 1.301 2.434 2.283 3.427 0.679 0.687 1.221 0.675 1.89-0.024 0.928-0.97 1.682-2.059 2.204-3.3 0.308-0.731 0.535-1.485 0.569-2.284 0.025-0.578-0.050-1.134-0.378-1.63-0.418-0.63-1.104-0.815-1.78-0.483-0.42 0.207-0.752 0.515-1.014 0.898-0.15 0.219-0.282 0.452-0.436 0.703zM29.395 23.638c-0.015 1.082-0.259 2.112-0.757 3.070-0.845 1.625-2.068 2.884-3.705 3.728-1.614 0.832-3.267 0.927-4.957 0.265-0.686-0.269-1.37-0.547-2.039-0.855-1.215-0.56-2.425-0.555-3.668-0.090-0.873 0.327-1.759 0.625-2.654 0.884-0.927 0.268-1.881 0.366-2.848 0.256-0.836-0.095-1.542-0.466-2.154-1.026-0.78-0.715-1.405-1.549-1.799-2.533-0.505-1.261-0.384-2.478 0.352-3.627 0.576-0.9 1.353-1.617 2.106-2.36 0.547-0.54 1.083-1.094 1.587-1.674 0.582-0.669 0.929-1.477 1.217-2.306 0.267-0.77 0.51-1.548 0.774-2.319 0.191-0.557 0.54-1.020 0.886-1.49 0.832-1.13 2.018-1.625 3.329-1.916 1.553-0.345 2.907 0.1 4.061 1.121 0.711 0.628 1.326 1.365 1.987 2.049 1.127 1.166 2.322 2.255 3.661 3.174 0.666 0.458 1.366 0.868 2.027 1.334 0.946 0.666 1.744 1.473 2.23 2.546 0.255 0.562 0.356 1.157 0.364 1.77z"></path>
<path d="M14.146 7.599c0.003 0.866-0.151 1.801-0.561 2.679-0.439 0.94-1.074 1.683-2.119 1.972-0.86 0.238-1.653 0.046-2.393-0.416-0.973-0.608-1.632-1.49-2.121-2.504-0.711-1.473-0.985-3.032-0.839-4.661 0.086-0.962 0.358-1.862 0.896-2.68 0.927-1.411 2.593-1.809 4.042-0.951 0.94 0.557 1.599 1.37 2.099 2.32 0.682 1.294 1.007 2.679 0.996 4.24z"></path>
<path d="M24.264 5.019c0.002 1.764-0.324 3.245-1.127 4.599-0.449 0.757-1.023 1.402-1.816 1.817-1.16 0.606-2.437 0.384-3.347-0.564-0.721-0.75-1.112-1.664-1.321-2.663-0.362-1.728-0.175-3.416 0.437-5.058 0.296-0.795 0.729-1.522 1.351-2.108 0.573-0.541 1.226-0.964 2.039-1.032 1.035-0.086 1.848 0.353 2.497 1.128 0.669 0.799 1.004 1.747 1.17 2.758 0.072 0.436 0.093 0.88 0.117 1.123z"></path>
<path d="M0 13.524c0.014-0.788 0.165-1.529 0.633-2.171 0.612-0.84 1.469-1.15 2.482-1.086 1.024 0.064 1.897 0.507 2.68 1.131 1.395 1.112 2.317 2.532 2.684 4.289 0.162 0.777 0.175 1.562-0.097 2.319-0.467 1.302-1.534 1.974-2.923 1.866-0.865-0.067-1.625-0.413-2.324-0.905-1.505-1.061-2.474-2.503-2.965-4.266-0.105-0.378-0.116-0.783-0.17-1.176z"></path>
<path d="M31.666 11.066c-0.233 2.447-1.229 4.339-3.16 5.702-0.536 0.378-1.139 0.597-1.798 0.664-1.114 0.113-2.127-0.514-2.545-1.587-0.368-0.943-0.347-1.908-0.115-2.869 0.445-1.849 1.439-3.342 3.001-4.437 0.691-0.485 1.476-0.682 2.319-0.612 0.98 0.082 1.809 0.817 2.096 1.899 0.116 0.437 0.149 0.896 0.203 1.24z"></path>
</symbol>
<symbol id="icon-burger" viewBox="0 0 32 32">
<path d="M1.435 26.008c-0.405 0-0.745-0.139-1.021-0.416s-0.413-0.622-0.413-1.036c0-0.407 0.138-0.747 0.413-1.019s0.616-0.408 1.021-0.408h27.95c0.405 0 0.747 0.139 1.026 0.416s0.419 0.619 0.419 1.026c0 0.414-0.139 0.757-0.419 1.029s-0.621 0.408-1.026 0.408h-27.95zM1.435 16.965c-0.405 0-0.745-0.139-1.021-0.416s-0.413-0.619-0.413-1.026c0-0.407 0.138-0.746 0.413-1.019s0.616-0.408 1.021-0.408h27.95c0.405 0 0.747 0.139 1.026 0.416s0.419 0.619 0.419 1.026c0 0.407-0.139 0.746-0.419 1.019s-0.621 0.408-1.026 0.408h-27.95zM1.435 7.931c-0.405 0-0.745-0.139-1.021-0.416s-0.413-0.622-0.413-1.036c0-0.407 0.138-0.747 0.413-1.019s0.616-0.408 1.021-0.408h27.95c0.405 0 0.747 0.139 1.026 0.416s0.419 0.619 0.419 1.026c0 0.414-0.139 0.757-0.419 1.029s-0.621 0.408-1.026 0.408h-27.95z"></path>
</symbol>
<symbol id="icon-full" viewBox="0 0 32 32">
<path stroke-linejoin="miter" stroke-linecap="butt" stroke-miterlimit="4" stroke-width="1.6" d="M15.25 2.091c0.275-0.654 1.225-0.654 1.5 0l3.245 7.709c0.349 0.83 1.137 1.392 2.033 1.463l8.425 0.667c0.732 0.058 0.994 0.936 0.466 1.384l-6.42 5.433c-0.687 0.582-0.991 1.5-0.78 2.376l1.963 8.122c0.159 0.659-0.579 1.238-1.216 0.853h-0.002l-7.211-4.352c-0.769-0.464-1.737-0.464-2.506 0l-7.213 4.352c-0.637 0.384-1.375-0.194-1.216-0.853l1.962-8.122c0.212-0.876-0.092-1.795-0.78-2.376l-6.42-5.433c-0.529-0.448-0.267-1.326 0.466-1.384l8.425-0.667c0.896-0.071 1.683-0.633 2.033-1.463l3.245-7.709z"></path>
</symbol>
<symbol id="icon-star" viewBox="0 0 32 32">
<path stroke-linejoin="miter" stroke-linecap="butt" stroke-miterlimit="4" stroke-width="3.2" d="M16.012 2.402l3.245 7.709c0.467 1.109 1.516 1.854 2.706 1.948l8.413 0.666-6.395 5.411c-0.916 0.776-1.322 2.002-1.039 3.175l1.956 8.105c-0.003 0.001-0.004 0.004-0.006 0.005-0.003-0.001-0.007-0.003-0.012-0.006l-7.214-4.353c-1.023-0.617-2.308-0.617-3.331 0l-7.214 4.353c-0.005 0.003-0.010 0.005-0.013 0.006-0.002-0.001-0.005-0.003-0.008-0.005l1.958-8.105c0.266-1.1-0.075-2.245-0.873-3.023l-0.166-0.152-6.397-5.411 8.414-0.666c1.19-0.094 2.239-0.839 2.706-1.948l3.244-7.709c0.004-0.001 0.009-0.002 0.014-0.002s0.009 0.001 0.012 0.002z"></path>
</symbol>
<symbol id="icon-close" viewBox="0 0 32 32">
<path stroke-linejoin="miter" stroke-linecap="butt" stroke-miterlimit="4" stroke-width="2.2857" d="M27.828 1.143c0.376 0 0.609 0.111 0.792 0.295s0.294 0.416 0.295 0.79c0 0.375-0.111 0.609-0.295 0.792l-12.009 12.009 12.009 12.007c0.184 0.184 0.295 0.417 0.295 0.792s-0.111 0.609-0.295 0.792-0.417 0.295-0.792 0.295c-0.375 0-0.609-0.111-0.792-0.295l-12.007-12.009-12.009 12.009c-0.184 0.184-0.417 0.295-0.792 0.295s-0.607-0.111-0.79-0.295c-0.184-0.184-0.295-0.417-0.295-0.792s0.111-0.609 0.295-0.792l12.007-12.007-12.007-12.009c-0.184-0.184-0.295-0.417-0.295-0.792s0.111-0.607 0.295-0.79 0.415-0.294 0.79-0.295c0.375 0 0.609 0.111 0.792 0.295l12.009 12.007 12.007-12.007c0.184-0.184 0.417-0.295 0.792-0.295z"></path>
</symbol>
<symbol id="icon-plus" viewBox="0 0 32 32">
<path d="M13.435 17.082h-11.618c-0.513 0-0.944-0.176-1.293-0.527s-0.524-0.784-0.524-1.3c0-0.515 0.175-0.945 0.524-1.29s0.78-0.517 1.293-0.517h11.618v-11.618c0-0.512 0.176-0.945 0.527-1.299s0.784-0.531 1.3-0.531c0.515 0 0.945 0.177 1.29 0.531s0.517 0.787 0.517 1.299v11.618h11.618c0.512 0 0.945 0.176 1.299 0.527s0.531 0.784 0.531 1.3c0 0.515-0.177 0.945-0.531 1.29s-0.787 0.517-1.299 0.517h-11.618v11.618c0 0.513-0.176 0.944-0.527 1.293s-0.784 0.524-1.3 0.524c-0.515 0-0.945-0.174-1.29-0.524s-0.517-0.78-0.517-1.293v-11.618z"></path>
</symbol>
<symbol id="icon-left" viewBox="0 0 32 32">
<path stroke-linejoin="miter" stroke-linecap="butt" stroke-miterlimit="4" stroke-width="2" d="M15.643 1c0.171 0 0.318 0.053 0.482 0.217 0.165 0.172 0.217 0.326 0.217 0.498-0 0.174-0.053 0.322-0.217 0.486l-12.723 12.723h26.82c0.243 0 0.393 0.071 0.522 0.197 0.124 0.123 0.193 0.266 0.193 0.506s-0.069 0.383-0.193 0.506c-0.128 0.127-0.279 0.197-0.522 0.197h-26.82l12.711 12.709c0.165 0.165 0.221 0.319 0.223 0.502v0.002c0.001 0.133-0.028 0.25-0.111 0.369l-0.104 0.123c-0.16 0.162-0.306 0.214-0.484 0.213-0.189-0.002-0.346-0.062-0.512-0.227l-13.896-13.896c-0.106-0.108-0.158-0.193-0.182-0.25v-0.002c-0.030-0.073-0.047-0.153-0.047-0.248s0.017-0.173 0.047-0.244v-0.002c0.024-0.057 0.075-0.142 0.182-0.25l13.9-13.9c0.181-0.174 0.34-0.229 0.514-0.229z"></path>
</symbol>
<symbol id="icon-right" viewBox="0 0 32 32">
<path stroke-linejoin="miter" stroke-linecap="butt" stroke-miterlimit="4" stroke-width="2" d="M16.289 1c0.142 0.001 0.266 0.035 0.389 0.121l0.123 0.105 13.896 13.896c0.106 0.108 0.158 0.193 0.182 0.25v0.002c0.030 0.073 0.047 0.153 0.047 0.248s-0.017 0.173-0.047 0.244v0.002c-0.024 0.057-0.075 0.142-0.182 0.25l-13.908 13.896c-0.183 0.181-0.34 0.232-0.506 0.232-0.161-0-0.306-0.049-0.473-0.221l-0.010-0.010-0.104-0.121c-0.084-0.119-0.113-0.235-0.113-0.365s0.030-0.245 0.113-0.363l0.104-0.121 12.723-12.723h-26.82c-0.244-0-0.389-0.070-0.51-0.191h-0.002c-0.122-0.122-0.191-0.268-0.191-0.512s0.070-0.39 0.191-0.512h0.002c0.121-0.121 0.266-0.191 0.51-0.191h26.82l-12.711-12.711c-0.123-0.123-0.186-0.24-0.211-0.369l-0.012-0.135c-0.002-0.18 0.050-0.327 0.211-0.488l0.002-0.002c0.16-0.161 0.307-0.214 0.486-0.213z"></path>
</symbol>
<symbol id="icon-facebook" viewBox="0 0 32 32">
<path d="M32 16.098c0-8.891-7.163-16.098-16-16.098s-16 7.207-16 16.098c0 8.035 5.851 14.695 13.5 15.902v-11.249h-4.063v-4.653h4.063v-3.547c0-4.035 2.389-6.263 6.043-6.263 1.751 0 3.582 0.314 3.582 0.314v3.962h-2.017c-1.988 0-2.608 1.241-2.608 2.514v3.020h4.437l-0.709 4.653h-3.728v11.249c7.649-1.208 13.5-7.867 13.5-15.902z"></path>
</symbol>
<symbol id="icon-instagram" viewBox="0 0 32 32">
<path d="M16 2.881c4.275 0 4.781 0.019 6.462 0.094 1.563 0.069 2.406 0.331 2.969 0.55 0.744 0.288 1.281 0.638 1.837 1.194 0.563 0.563 0.906 1.094 1.2 1.838 0.219 0.563 0.481 1.412 0.55 2.969 0.075 1.688 0.094 2.194 0.094 6.463s-0.019 4.781-0.094 6.463c-0.069 1.563-0.331 2.406-0.55 2.969-0.288 0.744-0.637 1.281-1.194 1.837-0.563 0.563-1.094 0.906-1.837 1.2-0.563 0.219-1.413 0.481-2.969 0.55-1.688 0.075-2.194 0.094-6.463 0.094s-4.781-0.019-6.463-0.094c-1.563-0.069-2.406-0.331-2.969-0.55-0.744-0.288-1.281-0.637-1.838-1.194-0.563-0.563-0.906-1.094-1.2-1.837-0.219-0.563-0.481-1.413-0.55-2.969-0.075-1.688-0.094-2.194-0.094-6.463s0.019-4.781 0.094-6.463c0.069-1.563 0.331-2.406 0.55-2.969 0.288-0.744 0.638-1.281 1.194-1.838 0.563-0.563 1.094-0.906 1.838-1.2 0.563-0.219 1.412-0.481 2.969-0.55 1.681-0.075 2.188-0.094 6.463-0.094zM16 0c-4.344 0-4.887 0.019-6.594 0.094-1.7 0.075-2.869 0.35-3.881 0.744-1.056 0.412-1.95 0.956-2.837 1.85-0.894 0.888-1.438 1.781-1.85 2.831-0.394 1.019-0.669 2.181-0.744 3.881-0.075 1.713-0.094 2.256-0.094 6.6s0.019 4.887 0.094 6.594c0.075 1.7 0.35 2.869 0.744 3.881 0.413 1.056 0.956 1.95 1.85 2.837 0.887 0.887 1.781 1.438 2.831 1.844 1.019 0.394 2.181 0.669 3.881 0.744 1.706 0.075 2.25 0.094 6.594 0.094s4.888-0.019 6.594-0.094c1.7-0.075 2.869-0.35 3.881-0.744 1.050-0.406 1.944-0.956 2.831-1.844s1.438-1.781 1.844-2.831c0.394-1.019 0.669-2.181 0.744-3.881 0.075-1.706 0.094-2.25 0.094-6.594s-0.019-4.887-0.094-6.594c-0.075-1.7-0.35-2.869-0.744-3.881-0.394-1.063-0.938-1.956-1.831-2.844-0.887-0.887-1.781-1.438-2.831-1.844-1.019-0.394-2.181-0.669-3.881-0.744-1.712-0.081-2.256-0.1-6.6-0.1v0z"></path>
<path d="M16 7.781c-4.537 0-8.219 3.681-8.219 8.219s3.681 8.219 8.219 8.219 8.219-3.681 8.219-8.219c0-4.537-3.681-8.219-8.219-8.219zM16 21.331c-2.944 0-5.331-2.387-5.331-5.331s2.387-5.331 5.331-5.331c2.944 0 5.331 2.387 5.331 5.331s-2.387 5.331-5.331 5.331z"></path>
<path d="M26.462 7.456c0 1.060-0.859 1.919-1.919 1.919s-1.919-0.859-1.919-1.919c0-1.060 0.859-1.919 1.919-1.919s1.919 0.859 1.919 1.919z"></path>
</symbol>
</defs>
</svg>